HIERARCHY
ROOT Hips
{
  OFFSET 113.357 94.8219 250.803
  CHANNELS 6 Xposition Yposition Zposition Zrotation Xrotation Yrotation
  JOINT RightUpLeg
  {
    OFFSET -8.9458 -8.66707 0.101652
    CHANNELS 3 Zrotation Xrotation Yrotation
    JOINT RightLeg
    {
      OFFSET 0 -44.4227 1.3727
      CHANNELS 3 Zrotation Xrotation Yrotation
      JOINT RightFoot
      {
        OFFSET 0.253549 -42.0924 -1.46059
        CHANNELS 3 Zrotation Xrotation Yrotation
        JOINT RightToes
        {
          OFFSET 0.04 -4.41509 8.4991
          CHANNELS 3 Zrotation Xrotation Yrotation
          End Site
          {
            OFFSET -0.08 -0.137448 9.77979
          }
        }
      }
    }
  }
  JOINT Spine
  {
    OFFSET 0 11.8905 0
    CHANNELS 3 Zrotation Xrotation Yrotation
    JOINT Spine1
    {
      OFFSET 0 25.6574 0.127663
      CHANNELS 3 Zrotation Xrotation Yrotation
      JOINT HEad
      {
        OFFSET 0 8.73416 0.011341
        CHANNELS 3 Zrotation Xrotation Yrotation
        End Site
        {
          OFFSET -0.29 12.7742 2.51395
        }
      }
      JOINT LeftShoulder1
      {
        OFFSET 8.99 -0.362252 -0.22
        CHANNELS 3 Zrotation Xrotation Yrotation
        JOINT LeftArm
        {
          OFFSET 10.2827 -0.00338 0.322123
          CHANNELS 3 Zrotation Xrotation Yrotation
          JOINT LeftForeArm
          {
            OFFSET 32.7669 0.099144 -1.42434
            CHANNELS 3 Zrotation Xrotation Yrotation
            JOINT LeftHand
            {
              OFFSET 27.5643 0.085362 1.02216
              CHANNELS 3 Zrotation Xrotation Yrotation
              End Site
              {
                OFFSET 16.7443 -0.6 1.50291
              }
            }
          }
        }
      }
      JOINT RightShoulder
      {
        OFFSET -8.99 -0.362252 -0.22
        CHANNELS 3 Zrotation Xrotation Yrotation
        JOINT RightArm
        {
          OFFSET -10.2827 -0.00338 0.322123
          CHANNELS 3 Zrotation Xrotation Yrotation
          JOINT RightForeArm
          {
            OFFSET -32.8971 0.099144 -1.42434
            CHANNELS 3 Zrotation Xrotation Yrotation
            JOINT RightHand
            {
              OFFSET -27.4921 0.085362 1.02216
              CHANNELS 3 Zrotation Xrotation Yrotation
              End Site
              {
                OFFSET -16.6312 -0.6 1.50291
              }
            }
          }
        }
      }
    }
  }
  JOINT LeftUpLeg
  {
    OFFSET 8.9458 -8.66707 0.101652
    CHANNELS 3 Zrotation Xrotation Yrotation
    JOINT LeftLeg
    {
      OFFSET 0 -44.4227 1.3727
      CHANNELS 3 Zrotation Xrotation Yrotation
      JOINT LeftFoot
      {
        OFFSET -0.253549 -42.0924 -1.46059
        CHANNELS 3 Zrotation Xrotation Yrotation
        JOINT LeftToes
        {
          OFFSET -0.04 -4.41509 8.4991
          CHANNELS 3 Zrotation Xrotation Yrotation
          End Site
          {
            OFFSET 0.08 -0.047448 9.77979
          }
        }
      }
    }
  }
}
MOTION
Frames:	12
Frame Time:	0.0166667
113.357 94.8219 250.803 3.93217 2.7682 -174.811 12.3287 -3.48076 12.8069 5.13195 21.4141 -24.8502 8.00552 -11.87 0.24944 -6.34584 -6.49516 6.86812 6.13472 3.42866 3.66093 9.06414 6.28505 2.24131 -8.47763 0.321714 1.00183 -3.18055e-015 0 1.59028e-015 -143.807 -56.362 -67.7203 7.83658 10.0993 1.32019 0.368473 9.90896 -0.00117925 -3.8468 0.251098 1.44051 135.53 -53.9949 67.2422 -8.5694 7.52086 -0.995681 -0.369625 9.91382 0.00119887 2.1908 -25.4785 -9.44284 -4.98809 53.6549 15.2653 -1.00259 -10.7464 -0.0296366 -0.370336 -7.95927 1.92458 
113.355 94.8911 249.05 3.44489 2.6177 -175.472 11.8907 -1.91958 13.0053 4.92945 20.8267 -21.9934 8.16988 -13.4566 0.396618 -3.2857 -5.14685 3.53624 6.05654 3.13141 3.89057 8.73165 6.75183 2.39314 -8.92472 0.088436 1.33924 5.96354e-016 0 1.59028e-015 -142.537 -57.3165 -66.1433 6.92282 10.3297 1.69268 0.368473 9.90896 -0.00117925 -5.19171 0.208749 1.94314 136.885 -52.5347 67.5801 -9.1428 7.3463 -0.758436 -0.369625 9.91382 0.00119887 1.30461 -26.0643 -9.53077 -3.79383 48.8187 13.4714 -1.11109 -10.2426 -0.0295883 -0.607572 -8.09863 2.12801 
113.349 94.9399 247.302 2.99526 2.44742 -176.094 11.4471 -0.412232 13.1946 4.84607 20.1443 -19.7291 8.35549 -14.741 0.523332 -0.730712 -4.15574 0.872466 5.96425 2.85531 4.11536 8.47051 7.12222 2.53083 -9.42534 -0.115998 1.64997 1.78906e-015 1.59028e-015 -1.59028e-015 -141.368 -58.2493 -64.6652 6.10155 10.5308 2.02689 0.368473 9.90896 -0.00117925 -6.44131 0.166192 2.40996 138.134 -51.1648 67.9064 -9.69099 7.17721 -0.53128 -0.369625 9.91382 0.00119887 0.450421 -26.5663 -9.59906 -2.76689 43.7921 12.0168 -1.23878 -9.64285 -0.0295341 -0.680114 -7.90129 2.13296 
113.332 94.9287 245.565 2.65104 2.21139 -176.594 10.9983 0.938765 13.3011 4.91593 19.3868 -19.1513 8.58134 -15.1141 0.582091 -0.0227883 -4.28664 0.0731063 5.81553 2.64901 4.33086 8.43907 7.18625 2.62391 -10.1077 -0.257133 1.88617 -1.98785e-016 0 3.18055e-015 -140.512 -59.1926 -63.5556 5.44889 10.6692 2.29209 0.368473 9.90896 -0.00117925 -7.48668 0.11932 2.77644 139.233 -50.0229 68.2395 -10.2296 7.00406 -0.307849 -0.369625 9.91382 0.00119887 -0.338695 -26.8947 -9.59455 -1.40524 38.342 10.6922 -1.35084 -8.82401 -0.0297085 -0.144465 -6.68904 1.47171 
113.305 94.8949 243.839 2.37247 1.97129 -177.057 10.5761 2.23862 13.4675 5.0182 18.6152 -19.2041 8.82395 -15.1957 0.619816 -0.161388 -4.84821 0.117528 5.66922 2.45068 4.53113 8.46294 7.1892 2.7044 -10.8166 -0.323265 2.0846 2.38542e-015 1.59028e-015 1.59028e-015 -140.168 -60.1118 -62.8983 5.12396 10.7306 2.42401 0.368473 9.90896 -0.00117925 -8.27679 0.0796024 3.09285 139.964 -49.0367 68.4605 -10.6177 6.87796 -0.146668 -0.369625 9.91382 0.00119887 -1.02126 -26.9852 -9.5866 -0.0394039 32.5692 9.62439 -1.62833 -7.77116 -0.0280799 0.395372 -5.14609 0.763885 
113.264 94.8748 242.134 2.13473 1.79203 -177.56 10.2012 3.59806 13.9568 5.09281 17.7906 -19.2156 9.10537 -15.4678 0.678161 -0.539428 -5.39278 0.446457 5.58033 2.19437 4.70914 8.37223 7.37114 2.80261 -11.4275 -0.252081 2.24758 1.98785e-015 -1.59028e-015 -1.59028e-015 -140.841 -60.9669 -63.0259 5.45415 10.663 2.28995 0.368473 9.90896 -0.00117925 -8.6471 0.0614833 3.38703 139.941 -48.17 68.4045 -10.638 6.87623 -0.138267 -0.369625 9.91382 0.00119887 -1.51817 -26.7003 -9.63236 1.11875 26.3961 8.99898 -2.32464 -6.33381 -0.0261378 0.321789 -3.69946 0.516323 
113.218 94.8329 240.424 1.9643 1.61766 -178.042 9.85377 4.88475 14.343 5.17103 17.0816 -19.1771 9.32503 -15.7352 0.73024 -1.01618 -5.91121 0.900046 5.52054 1.94133 4.86389 8.30496 7.53742 2.8943 -11.9762 -0.160983 2.43062 4.57205e-015 0 -0 -141.928 -61.7839 -63.5541 6.0077 10.546 2.06502 0.368473 9.90896 -0.00117925 -8.82971 0.051863 3.66171 139.659 -47.4564 68.2811 -10.5378 6.9109 -0.179934 -0.369625 9.91382 0.00119887 -1.91213 -26.1701 -9.71882 2.39362 20.1574 8.35267 -3.18874 -4.7955 -0.0123706 -0.103308 -2.45574 0.569106 
113.176 94.746 238.704 1.86716 1.39185 -178.444 9.54981 5.98324 14.2313 5.29502 16.6197 -18.8477 9.31232 -15.9356 0.752433 -1.21411 -6.22987 1.07004 5.43892 1.75114 4.98073 8.36952 7.52329 2.95267 -12.445 -0.181787 2.72273 2.5842e-015 0 -1.59028e-015 -142.869 -62.5938 -64.1033 6.41406 10.4524 1.89975 0.368473 9.90896 -0.00117925 -9.02285 0.0413092 3.9388 139.614 -46.9434 68.3056 -10.5697 6.8948 -0.166621 -0.369625 9.91382 0.00119887 -2.32412 -25.3603 -9.97152 4.03316 13.8569 7.17084 -4.13014 -3.23209 0.0372498 -1.05915 -1.8643 1.1623 
113.124 94.6143 236.928 1.87694 1.18062 -178.843 9.34223 6.98989 13.7708 5.41494 16.4603 -18.2556 9.2978 -16.1532 0.776137 -1.299 -6.39679 1.13651 5.45613 1.56274 5.09341 8.48861 7.47924 3.01504 -12.8652 -0.208726 3.02563 3.18055e-015 -1.59028e-015 1.59028e-015 -143.873 -63.329 -64.8019 6.81905 10.3512 1.73488 0.368473 9.90896 -0.00117925 -9.16263 0.0333059 4.18867 139.363 -46.5531 68.2262 -10.4983 6.90276 -0.196097 -0.369625 9.91382 0.00119887 -2.55466 -24.6272 -10.0313 5.38014 8.30396 5.99014 -4.92516 -2.11613 0.083482 -1.81263 -1.32064 1.60828 
113.051 94.4142 235.041 2.06583 1.03792 -179.318 9.33786 7.93479 12.8651 5.44017 16.796 -17.2328 9.52283 -16.5118 0.837275 -1.21143 -6.31645 1.05198 5.7513 1.30074 5.23546 8.59067 7.56064 3.12385 -13.2788 -0.18856 3.24888 7.95139e-016 1.59028e-015 3.18055e-015 -145.053 -63.885 -65.746 7.28734 10.2222 1.54405 0.368473 9.90896 -0.00117925 -9.24482 0.0285572 4.38505 138.413 -46.1388 67.772 -10.0696 7.00426 -0.373658 -0.369625 9.91382 0.00119887 -2.37548 -24.4219 -9.54662 6.06607 4.45719 5.01231 -5.19538 -2.20316 0.0857867 -1.34697 -0.0588206 1.00426 
112.956 94.1942 233.055 2.32686 0.943492 -179.813 9.36766 8.88932 11.8586 5.47389 17.356 -16.1154 9.78699 -16.83 0.899445 -1.23669 -6.24524 1.09204 6.10156 1.06805 5.39292 8.7645 7.58785 3.23728 -13.6416 -0.095782 3.45793 -5.96354e-016 1.59028e-015 -1.59028e-015 -146.104 -64.4008 -66.6017 7.69121 10.1058 1.37929 0.368473 9.90896 -0.00117925 -9.28873 0.0259658 4.53976 137.439 -45.947 67.2607 -9.59097 7.12801 -0.571859 -0.369625 9.91382 0.00119887 -2.04981 -24.4128 -8.63248 6.36951 2.00801 4.40903 -5.29966 -2.72006 0.0727359 -0.576073 0.988234 0.240213 
112.833 93.9775 230.954 2.62 0.890634 179.678 9.3043 9.94115 11.0795 5.61191 17.9378 -15.2002 9.95978 -16.9819 0.938313 -1.80197 -6.52381 1.6807 6.35987 0.954404 5.59457 9.15508 7.34799 3.32958 -13.9307 0.163466 3.69558 3.97569e-016 0 -0 -146.643 -65.0274 -66.9244 7.86828 10.0507 1.307 0.368473 9.90896 -0.00117925 -9.3003 0.0255346 4.64652 137.082 -46.2715 66.9753 -9.35029 7.21608 -0.671757 -0.369625 9.91382 0.00119887 -1.69057 -24.4541 -7.22011 6.33161 1.11514 4.80273 -5.53706 -3.42449 0.0450965 -0.128108 1.23559 -0.126074 
